<svg width="32" height="32" viewBox="0 0 32 32" fill="none" xmlns="http://www.w3.org/2000/svg">
<rect width="32" height="32" fill="black"/>
<g clip-path="url(#clip0)">
<path d="M15.8105 23.7847C14.1624 23.7847 12.5146 23.298 11.1153 22.3727C9.29578 21.1698 8.06413 19.3624 7.64644 17.2838C7.24677 15.2944 7.67415 13.1747 8.81893 11.4677C9.92614 9.81687 11.5799 8.70558 13.4759 8.33855C15.2856 7.98818 17.2072 8.39023 18.7478 9.44117C20.2307 10.4523 21.2211 11.9533 21.5373 13.6669C21.8382 15.2972 21.461 17.0206 20.5032 18.3946C19.5874 19.7088 18.24 20.5784 16.7081 20.8429C15.2565 21.0931 13.7312 20.7409 12.5241 19.8758C11.379 19.055 10.6313 17.8599 10.4188 16.5103C10.2184 15.2368 10.5473 13.9098 11.3217 12.8694C12.0481 11.8934 13.0914 11.2685 14.2594 11.1095C15.3553 10.9608 16.4847 11.268 17.3579 11.9534C18.1638 12.5868 18.6648 13.4792 18.768 14.466C18.8641 15.3883 18.5746 16.3202 17.9736 17.0237C17.4308 17.659 16.6876 18.0321 15.8806 18.075C15.1358 18.1137 14.381 17.8276 13.8582 17.3083C13.3972 16.8498 13.159 16.2512 13.1883 15.6232C13.2155 15.0374 13.5352 14.4477 14.0029 14.1211C14.3975 13.8455 14.8626 13.7717 15.3119 13.9132C15.6854 14.031 15.8928 14.4291 15.7752 14.8025C15.6575 15.1761 15.2589 15.3835 14.8861 15.2659C14.8663 15.2596 14.8546 15.2557 14.8148 15.2836C14.7074 15.3585 14.6113 15.544 14.6045 15.6885C14.594 15.9183 14.679 16.1247 14.8575 16.3017C15.0974 16.5402 15.4615 16.6748 15.8058 16.6587C16.3375 16.6305 16.6916 16.3406 16.8951 16.1026C17.2397 15.6992 17.4128 15.1426 17.357 14.6131C17.2946 14.0113 16.9835 13.4627 16.4818 13.0685C15.9091 12.6186 15.1691 12.4162 14.4507 12.5144C13.6634 12.6214 12.9564 13.0481 12.4597 13.7156C11.9112 14.4523 11.6782 15.3903 11.8196 16.2896C11.9724 17.2608 12.5159 18.1253 13.3499 18.723C14.2509 19.3685 15.3867 19.632 16.4667 19.4452C17.6222 19.2456 18.6426 18.5846 19.3399 17.5837C20.0825 16.5183 20.375 15.1843 20.1426 13.9237C19.896 12.5848 19.1167 11.4087 17.9491 10.6123C16.7185 9.77301 15.1865 9.45188 13.7455 9.73034C12.2232 10.0251 10.8919 10.9224 9.99686 12.2572C9.06118 13.6526 8.71115 15.3828 9.03704 17.0043C9.37942 18.7097 10.3955 20.196 11.8976 21.1897C13.4577 22.2214 15.386 22.5995 17.188 22.2267C20.4223 21.5576 22.9019 18.6217 23.0835 15.2455C23.1045 14.8545 23.4371 14.5553 23.8298 14.5757C24.2208 14.5968 24.5206 14.9308 24.4994 15.322C24.2837 19.3302 21.3296 22.8185 17.4752 23.6156C16.9264 23.7286 16.3685 23.7847 15.8105 23.7847Z" fill="white"/>
</g>
<defs>
<clipPath id="clip0">
<rect width="17" height="17" fill="white" transform="translate(7.5 7.5)"/>
</clipPath>
</defs>
</svg>
