<svg width="32" height="33" viewBox="0 0 32 33" fill="none" xmlns="http://www.w3.org/2000/svg">
<g clip-path="url(#clip0)">
<path d="M15.8105 24.3721C14.1624 24.3721 12.5146 23.8854 11.1153 22.9601C9.29578 21.7572 8.06413 19.9498 7.64644 17.8712C7.24677 15.8818 7.67415 13.7621 8.81893 12.0551C9.92614 10.4043 11.5799 9.29298 13.4759 8.92595C15.2856 8.57558 17.2072 8.97763 18.7478 10.0286C20.2307 11.0397 21.2211 12.5407 21.5373 14.2543C21.8382 15.8846 21.461 17.608 20.5032 18.982C19.5874 20.2962 18.24 21.1658 16.7081 21.4303C15.2565 21.6805 13.7312 21.3283 12.5241 20.4632C11.379 19.6424 10.6313 18.4473 10.4188 17.0977C10.2184 15.8242 10.5473 14.4972 11.3217 13.4568C12.0481 12.4808 13.0914 11.8559 14.2594 11.6969C15.3553 11.5482 16.4847 11.8554 17.3579 12.5408C18.1638 13.1742 18.6648 14.0666 18.768 15.0534C18.8641 15.9757 18.5746 16.9076 17.9736 17.6111C17.4308 18.2464 16.6876 18.6195 15.8806 18.6624C15.1358 18.7011 14.381 18.415 13.8582 17.8957C13.3972 17.4372 13.159 16.8386 13.1883 16.2106C13.2155 15.6248 13.5352 15.0351 14.0029 14.7085C14.3975 14.4329 14.8626 14.3591 15.3119 14.5006C15.6854 14.6184 15.8928 15.0165 15.7752 15.3899C15.6575 15.7635 15.2589 15.9709 14.8861 15.8533C14.8663 15.847 14.8546 15.8431 14.8148 15.871C14.7074 15.9459 14.6113 16.1314 14.6045 16.2759C14.594 16.5057 14.679 16.7121 14.8575 16.8891C15.0974 17.1276 15.4615 17.2622 15.8058 17.2461C16.3375 17.2179 16.6916 16.928 16.8951 16.69C17.2397 16.2866 17.4128 15.73 17.357 15.2005C17.2946 14.5987 16.9835 14.0501 16.4818 13.6559C15.9091 13.206 15.1691 13.0036 14.4507 13.1018C13.6634 13.2088 12.9564 13.6355 12.4597 14.3031C11.9112 15.0397 11.6782 15.9777 11.8196 16.877C11.9724 17.8482 12.5159 18.7127 13.3499 19.3104C14.2509 19.9559 15.3867 20.2194 16.4667 20.0326C17.6222 19.833 18.6426 19.172 19.3399 18.1711C20.0825 17.1057 20.375 15.7717 20.1426 14.5111C19.896 13.1722 19.1167 11.9961 17.9491 11.1997C16.7185 10.3604 15.1865 10.0393 13.7455 10.3177C12.2232 10.6125 10.8919 11.5098 9.99686 12.8446C9.06118 14.24 8.71115 15.9702 9.03704 17.5917C9.37942 19.2971 10.3955 20.7834 11.8976 21.7771C13.4577 22.8088 15.386 23.1869 17.188 22.8141C20.4223 22.145 22.9019 19.2091 23.0835 15.8329C23.1045 15.4419 23.4371 15.1427 23.8298 15.1631C24.2208 15.1842 24.5206 15.5182 24.4994 15.9094C24.2837 19.9176 21.3296 23.4059 17.4752 24.203C16.9264 24.316 16.3685 24.3721 15.8105 24.3721Z" fill="white"/>
</g>
<defs>
<clipPath id="clip0">
<rect width="17" height="17" fill="white" transform="translate(7.5 8.08691)"/>
</clipPath>
</defs>
</svg>
