<svg width="32" height="32" viewBox="0 0 32 32" fill="none" xmlns="http://www.w3.org/2000/svg">
<g clip-path="url(#clip0)">
<path d="M15.107 11.3333H17.3337C17.6873 11.3333 18.0264 11.4738 18.2765 11.7239C18.5265 11.9739 18.667 12.3131 18.667 12.6667V14.8933L19.3337 15.56L23.3337 12.6667V19.3333M18.667 18.6667V19.3333C18.667 19.687 18.5265 20.0261 18.2765 20.2762C18.0264 20.5262 17.6873 20.6667 17.3337 20.6667H10.0003C9.6467 20.6667 9.30756 20.5262 9.05752 20.2762C8.80747 20.0261 8.66699 19.687 8.66699 19.3333V12.6667C8.66699 12.3131 8.80747 11.9739 9.05752 11.7239C9.30756 11.4738 9.6467 11.3333 10.0003 11.3333H11.3337L18.667 18.6667Z" stroke="white" stroke-width="1.5" stroke-linecap="round" stroke-linejoin="round"/>
<path d="M8.66699 8.66666L23.3337 23.3333" stroke="white" stroke-width="1.5" stroke-linecap="round" stroke-linejoin="round"/>
</g>
<defs>
<clipPath id="clip0">
<rect width="16" height="16" fill="white" transform="translate(8 8)"/>
</clipPath>
</defs>
</svg>
